<?xml version="1.0" encoding="utf-8"?>
<!-- Uploaded to SVGRepo https://www.svgrepo.com -->
<svg version="1.1" id="Layer_1" xmlns="http://www.w3.org/2000/svg" xmlns:xlink="http://www.w3.org/1999/xlink" x="0px" y="0px"
	 viewBox="0 0 128 128" style="enable-background:new 0 0 128 128;" xml:space="preserve">
<g>
	<path d="M63.5,20c5.5,0,10-4.5,10-10c0-5.5-4.5-10-10-10c-5.5,0-10,4.5-10,10C53.5,15.5,58,20,63.5,20z"/>
	<path d="M39.7,50.5l7-28.9c0.4-1.5-0.6-3.1-2.1-3.5l-8.3-2c-1.6-0.4-3.1,0.6-3.5,2.1l-7,28.9c-0.4,1.5,0.6,3.1,2.1,3.5l8.3,2
		C37.7,53,39.3,52.1,39.7,50.5z"/>
	<path d="M104,31.6c-1.1,0-2,0.9-2.3,2L85,124.5c0,0.1,0,0.1,0,0.2c0,1.3,1,2.3,2.3,2.3c1.2,0,2.1-0.9,2.3-2l16.7-90.8v-0.2
		C106.3,32.7,105.3,31.6,104,31.6z"/>
	<path d="M64.4,52.5l1.3-5.8l1,4.6c0.9,3,3.7,3.3,3.7,3.3l16.2,4.1c0.3,0.1,0.6,0.1,1,0.1c2.7,0,4.8-2.1,4.8-4.8
		c0-2.3-1.6-4.2-3.7-4.7l-14.1-3.5L70.8,30c-1.8-8.8-10.2-8.6-10.2-8.6c-8.1-0.2-10.2,8.3-10.2,8.3l-21.1,88.7
		c-0.1,0.5-0.1,0.9-0.1,1.4c0,3.9,3.1,7,7,7c3.2,0,5.9-2.1,6.7-5L55,72l11.5,49.6c0.7,3.1,3.5,5.3,6.8,5.3c3.9,0,7-3.1,7-7
		c0-0.5-0.1-1-0.2-1.5L64.4,52.5z"/>
</g>
</svg>
